<svg width="21" height="32" viewBox="0 0 21 32" fill="none" xmlns="http://www.w3.org/2000/svg">
<path d="M10.3335 32C15.1928 32 19.1319 31.8086 19.1319 31.5725C19.1319 31.3364 15.1928 31.145 10.3335 31.145C5.47433 31.145 1.53516 31.3364 1.53516 31.5725C1.53516 31.8086 5.47433 32 10.3335 32Z" fill="#D8DFEA"/>
<path d="M19.4309 0L14.4221 10.3092C14.3492 10.4615 14.172 10.5365 14.0048 10.4873C13.5888 10.3669 13.1665 10.2662 12.7416 10.1863C12.6989 10.1777 12.6562 10.1704 12.6147 10.163C11.8367 10.0242 11.0461 9.95416 10.2517 9.95416C9.93621 9.95416 9.61947 9.96522 9.30524 9.98733C9.25748 9.99102 9.20971 9.99347 9.16195 9.99839C8.63656 10.0402 8.11369 10.1126 7.59835 10.2171C7.45129 10.2453 7.33315 10.0967 7.39725 9.96522L12.225 0H19.4309Z" fill="#F41943"/>
<path d="M11.2246 5.7418L10.3335 3.90403L10.9971 2.5343L11.8958 4.3561L11.2246 5.7418Z" fill="#BA0F38"/>
<path d="M12.9906 9.38902L11.2925 5.88547V5.88424L11.9649 4.49731L13.6794 7.97138L12.9906 9.38902Z" fill="#BA0F38"/>
<path d="M14.6259 9.89024L14.4222 10.3091C14.3493 10.4615 14.1721 10.5364 14.0049 10.4873C13.5876 10.3657 13.1666 10.2649 12.7417 10.1863C12.699 10.1777 12.6575 10.1691 12.6148 10.163C11.8632 10.0278 11.1015 9.95904 10.3335 9.95535C10.3611 9.95412 10.3875 9.95412 10.4152 9.95412C11.1555 9.95412 11.8971 10.0143 12.6274 10.1372C12.6701 10.1433 12.7128 10.1507 12.7556 10.158C12.8599 10.1765 12.9642 10.1961 13.0685 10.217C13.2156 10.2453 13.3337 10.0966 13.2696 9.96518L13.0597 9.53153L13.7498 8.11267L14.6259 9.89024Z" fill="#BA0F38"/>
<path d="M11.9649 4.49735L11.2925 5.88428L11.2246 5.743V5.74178L11.8958 4.35608L11.9649 4.49735Z" fill="#CE9117"/>
<path d="M14.1441 0L11.9646 4.49737L11.8955 4.3561L14.0059 0H14.1441Z" fill="#F9B906"/>
<path d="M13.7499 8.11271L13.0599 9.53157L12.9907 9.38907L13.6795 7.97144L13.7499 8.11271Z" fill="#CE9117"/>
<path d="M17.6913 0L13.7496 8.11271L13.6792 7.97144L17.553 0H17.6913Z" fill="#F9B906"/>
<path d="M15.1123 10.4456V12.6937H14.6133V10.5095C14.3493 10.4038 14.0803 10.3068 13.8076 10.2208C13.5172 10.1286 13.2231 10.0488 12.924 9.98C12.0919 9.78959 11.2246 9.68885 10.3335 9.68885C9.44232 9.68885 8.57379 9.78959 7.74297 9.98122C7.44257 10.05 7.14845 10.1299 6.85936 10.222C6.58536 10.308 6.31638 10.405 6.05368 10.5107V12.6949H5.55469V10.4468C5.55469 10.2896 5.65273 10.1471 5.8023 10.0893C6.0851 9.97877 6.49989 9.82521 6.64317 9.77853C7.08812 9.63603 7.54564 9.51687 8.01321 9.42719C8.76359 9.27978 9.54036 9.20361 10.3347 9.20361C11.1291 9.20361 11.9059 9.28101 12.6562 9.42719C13.1238 9.5181 13.5801 9.63726 14.025 9.78099C14.1683 9.82767 14.5831 9.98245 14.8672 10.0918C15.0167 10.1495 15.1148 10.292 15.1148 10.4493L15.1123 10.4456Z" fill="#BA6017"/>
<path d="M10.3335 30.4988C15.8563 30.4988 20.3335 26.123 20.3335 20.7252C20.3335 15.3274 15.8563 10.9517 10.3335 10.9517C4.81065 10.9517 0.333496 15.3274 0.333496 20.7252C0.333496 26.123 4.81065 30.4988 10.3335 30.4988Z" fill="#E37F22"/>
<path d="M10.3337 29.6291C15.3651 29.6291 19.4438 25.6427 19.4438 20.7252C19.4438 15.8078 15.3651 11.8214 10.3337 11.8214C5.30237 11.8214 1.22363 15.8078 1.22363 20.7252C1.22363 25.6427 5.30237 29.6291 10.3337 29.6291Z" fill="#BA6017"/>
<path d="M18.8869 20.7252C18.8869 25.3344 15.0508 29.0849 10.3336 29.0849C8.99621 29.0849 7.72924 28.7839 6.60053 28.2458C5.4228 27.6857 4.39716 26.8687 3.59651 25.8712C3.23075 25.4155 2.91275 24.9216 2.65006 24.3971C2.09324 23.2878 1.78027 22.0409 1.78027 20.7252C1.78027 19.7486 1.95247 18.8113 2.26921 17.9391C3.22069 15.3139 5.48063 13.2869 8.27726 12.6101C8.93588 12.4504 9.62592 12.3656 10.3348 12.3656C11.9122 12.3656 13.3916 12.7845 14.6611 13.5154C15.228 13.8422 15.7521 14.2292 16.226 14.6702C17.1196 15.5006 17.8285 16.5178 18.2898 17.6566C18.6757 18.6074 18.8869 19.6417 18.8869 20.7252Z" fill="#E37F22"/>
<path d="M14.6599 13.5154L2.65006 24.3971C2.09324 23.2878 1.78027 22.0409 1.78027 20.7252C1.78027 19.7486 1.95247 18.8113 2.26921 17.9391L8.27726 12.6101C8.93588 12.4504 9.62592 12.3656 10.3348 12.3656C11.9122 12.3656 13.3916 12.7845 14.6611 13.5154H14.6599Z" fill="#F79A4D"/>
<path d="M18.2887 17.6565L6.6007 28.247C5.42297 27.6869 4.39733 26.8699 3.59668 25.8724L16.2236 14.6714C17.1173 15.5018 17.8262 16.519 18.2875 17.6578L18.2887 17.6565Z" fill="#F79A4D"/>
<path d="M13.0684 10.2171C12.5531 10.1126 12.0302 10.0402 11.5048 9.99839C11.4571 9.99347 11.4093 9.99102 11.3615 9.98733C11.0473 9.96522 10.7306 9.95416 10.4151 9.95416C9.62071 9.95416 8.83011 10.0242 8.05208 10.163C8.0106 10.1704 7.96787 10.1777 7.92513 10.1863C7.50029 10.2662 7.07797 10.3669 6.66193 10.4873C6.49477 10.5365 6.31754 10.4615 6.24464 10.3092L1.23584 0H8.44172L13.2695 9.96522C13.3336 10.0967 13.2155 10.2453 13.0684 10.2171Z" fill="#F41943"/>
<path d="M11.5049 9.99839C11.4571 9.99347 11.4093 9.99102 11.3616 9.98733L6.52246 0H6.66072L11.5049 9.99839Z" fill="#F9B906"/>
<path d="M8.05177 10.163C8.01029 10.1704 7.96756 10.1777 7.92482 10.1863L2.9751 0H3.11336L8.05177 10.163Z" fill="#F9B906"/>
</svg>
