<svg width="21" height="32" viewBox="0 0 21 32" fill="none" xmlns="http://www.w3.org/2000/svg">
<path d="M10.667 32C15.5263 32 19.4654 31.8086 19.4654 31.5725C19.4654 31.3364 15.5263 31.145 10.667 31.145C5.80783 31.145 1.86865 31.3364 1.86865 31.5725C1.86865 31.8086 5.80783 32 10.667 32Z" fill="#D8DFEA"/>
<path d="M19.7649 0L14.7561 10.3092C14.6832 10.4615 14.506 10.5365 14.3388 10.4873C13.9228 10.3669 13.5005 10.2662 13.0756 10.1863C13.0329 10.1777 12.9902 10.1704 12.9487 10.163C12.1706 10.0242 11.3801 9.95416 10.5857 9.95416C10.2702 9.95416 9.95345 9.96522 9.63923 9.98733C9.59146 9.99102 9.5437 9.99347 9.49594 9.99839C8.97055 10.0402 8.44767 10.1126 7.93234 10.2171C7.78528 10.2453 7.66713 10.0967 7.73123 9.96522L12.559 0H19.7649Z" fill="#F41943"/>
<path d="M11.5581 5.74192L10.667 3.90415L11.3306 2.53442L12.2293 4.35622L11.5581 5.74192Z" fill="#BA0F38"/>
<path d="M13.3241 9.38902L11.626 5.88547V5.88424L12.2984 4.49731L14.0129 7.97138L13.3241 9.38902Z" fill="#BA0F38"/>
<path d="M14.9593 9.89037L14.7557 10.3093C14.6828 10.4616 14.5056 10.5365 14.3384 10.4874C13.9211 10.3658 13.5001 10.265 13.0752 10.1864C13.0325 10.1778 12.991 10.1692 12.9483 10.1631C12.1967 10.028 11.435 9.95916 10.667 9.95547C10.6946 9.95425 10.721 9.95425 10.7487 9.95425C11.489 9.95425 12.2306 10.0144 12.9609 10.1373C13.0036 10.1434 13.0463 10.1508 13.0891 10.1582C13.1934 10.1766 13.2977 10.1963 13.402 10.2171C13.5491 10.2454 13.6672 10.0967 13.6031 9.9653L13.3932 9.53166L14.0833 8.11279L14.9593 9.89037Z" fill="#BA0F38"/>
<path d="M12.2984 4.49747L11.626 5.8844L11.5581 5.74313V5.7419L12.2293 4.3562L12.2984 4.49747Z" fill="#CE9117"/>
<path d="M14.4781 0L12.2986 4.49737L12.2295 4.3561L14.3398 0H14.4781Z" fill="#F9B906"/>
<path d="M14.0829 8.11271L13.3929 9.53157L13.3237 9.38907L14.0125 7.97144L14.0829 8.11271Z" fill="#CE9117"/>
<path d="M18.0253 0L14.0836 8.11271L14.0132 7.97144L17.887 0H18.0253Z" fill="#F9B906"/>
<path d="M15.4453 10.4456V12.6937H14.9463V10.5095C14.6823 10.4038 14.4133 10.3068 14.1406 10.2208C13.8502 10.1286 13.5561 10.0488 13.257 9.98C12.4249 9.78959 11.5576 9.68885 10.6665 9.68885C9.77533 9.68885 8.9068 9.78959 8.07598 9.98122C7.77558 10.05 7.48146 10.1299 7.19237 10.222C6.91836 10.308 6.64938 10.405 6.38669 10.5107V12.6949H5.8877V10.4468C5.8877 10.2896 5.98573 10.1471 6.13531 10.0893C6.41811 9.97877 6.83289 9.82521 6.97618 9.77853C7.42113 9.63603 7.87865 9.51687 8.34622 9.42719C9.09659 9.27978 9.87337 9.20361 10.6677 9.20361C11.4621 9.20361 12.2389 9.28101 12.9893 9.42719C13.4568 9.5181 13.9131 9.63726 14.358 9.78099C14.5013 9.82767 14.9161 9.98245 15.2002 10.0918C15.3497 10.1495 15.4478 10.292 15.4478 10.4493L15.4453 10.4456Z" fill="#E8A615"/>
<path d="M10.667 30.4988C16.1898 30.4988 20.667 26.123 20.667 20.7252C20.667 15.3274 16.1898 10.9517 10.667 10.9517C5.14415 10.9517 0.666992 15.3274 0.666992 20.7252C0.666992 26.123 5.14415 30.4988 10.667 30.4988Z" fill="#F9B906"/>
<path d="M10.6672 29.6292C15.6986 29.6292 19.7773 25.6428 19.7773 20.7254C19.7773 15.8079 15.6986 11.8215 10.6672 11.8215C5.63586 11.8215 1.55713 15.8079 1.55713 20.7254C1.55713 25.6428 5.63586 29.6292 10.6672 29.6292Z" fill="#E8A615"/>
<path d="M19.2204 20.7251C19.2204 25.3343 15.3843 29.0847 10.6671 29.0847C9.32971 29.0847 8.06274 28.7838 6.93403 28.2457C5.7563 27.6855 4.73066 26.8686 3.93001 25.8711C3.56425 25.4153 3.24625 24.9215 2.98355 24.397C2.42674 23.2877 2.11377 22.0408 2.11377 20.7251C2.11377 19.7485 2.28597 18.8112 2.60271 17.939C3.55419 15.3138 5.81412 13.2868 8.61075 12.6099C9.26938 12.4502 9.95942 12.3655 10.6683 12.3655C12.2457 12.3655 13.7251 12.7844 14.9946 13.5153C15.5615 13.8421 16.0856 14.229 16.5595 14.6701C17.4531 15.5005 18.162 16.5177 18.6233 17.6564C19.0092 18.6073 19.2204 19.6416 19.2204 20.7251Z" fill="#F9B906"/>
<path d="M14.9934 13.5153L2.98355 24.397C2.42674 23.2877 2.11377 22.0408 2.11377 20.7251C2.11377 19.7485 2.28597 18.8112 2.60271 17.939L8.61075 12.6099C9.26938 12.4502 9.95942 12.3655 10.6683 12.3655C12.2457 12.3655 13.7251 12.7844 14.9946 13.5153H14.9934Z" fill="#FFC943"/>
<path d="M18.6217 17.6565L6.93371 28.247C5.75598 27.6869 4.73034 26.8699 3.92969 25.8724L16.5566 14.6714C17.4503 15.5018 18.1592 16.519 18.6205 17.6578L18.6217 17.6565Z" fill="#FFC943"/>
<path d="M13.4019 10.2171C12.8866 10.1126 12.3637 10.0402 11.8383 9.99839C11.7906 9.99347 11.7428 9.99102 11.695 9.98733C11.3808 9.96522 11.0641 9.95416 10.7486 9.95416C9.9542 9.95416 9.1636 10.0242 8.38557 10.163C8.3441 10.1704 8.30136 10.1777 8.25863 10.1863C7.83379 10.2662 7.41147 10.3669 6.99543 10.4873C6.82826 10.5365 6.65103 10.4615 6.57813 10.3092L1.56934 0H8.77522L13.603 9.96522C13.6671 10.0967 13.549 10.2453 13.4019 10.2171Z" fill="#F41943"/>
<path d="M11.8384 9.99839C11.7906 9.99347 11.7428 9.99102 11.6951 9.98733L6.85596 0H6.99422L11.8384 9.99839Z" fill="#F9B906"/>
<path d="M8.38527 10.163C8.34379 10.1704 8.30105 10.1777 8.25832 10.1863L3.30859 0H3.44685L8.38527 10.163Z" fill="#F9B906"/>
</svg>
