<svg width="701" height="883" viewBox="0 0 701 883" fill="none" xmlns="http://www.w3.org/2000/svg">
<circle cx="496.468" cy="287.658" r="59.7052" fill="#2F54EB"/>
<circle cx="496.468" cy="412.448" r="59.7052" fill="#2F54EB"/>
<circle cx="384.588" cy="351.129" r="59.7052" fill="#2F54EB"/>
<path d="M615.474 142.958C568.142 150.153 436.398 162.44 350.833 188.676C265.269 214.912 97.4909 304.862 98.5667 413.514C99.6425 522.167 534.505 589.94 525.108 741.624C515.712 893.307 -8.94771 940.651 34.4246 791.119C82.1626 626.536 378.133 851.362 412.558 743.785C444.1 645.215 83.6014 668.577 7.12629 439.333C-69.3488 210.089 493.374 13.8646 562.76 3.10579C632.146 -7.65299 701.534 23.5473 700.997 65.5024C700.46 107.458 662.807 135.763 615.474 142.958Z" fill="#2F54EB"/>
</svg>
