<svg width="20" height="32" viewBox="0 0 20 32" fill="none" xmlns="http://www.w3.org/2000/svg">
<path d="M10.0001 32C14.8593 32 18.7984 31.8086 18.7984 31.5725C18.7984 31.3364 14.8593 31.145 10.0001 31.145C5.14083 31.145 1.20166 31.3364 1.20166 31.5725C1.20166 31.8086 5.14083 32 10.0001 32Z" fill="#D8DFEA"/>
<path d="M19.0974 0L14.0886 10.3092C14.0157 10.4615 13.8385 10.5365 13.6713 10.4873C13.2553 10.3669 12.833 10.2662 12.4081 10.1863C12.3654 10.1777 12.3227 10.1704 12.2812 10.163C11.5032 10.0242 10.7126 9.95416 9.9182 9.95416C9.60272 9.95416 9.28597 9.96522 8.97175 9.98733C8.92398 9.99102 8.87622 9.99347 8.82846 9.99839C8.30307 10.0402 7.78019 10.1126 7.26486 10.2171C7.1178 10.2453 6.99965 10.0967 7.06375 9.96522L11.8916 0H19.0974Z" fill="#F41943"/>
<path d="M10.8912 5.7418L10 3.90403L10.6636 2.5343L11.5623 4.3561L10.8912 5.7418Z" fill="#BA0F38"/>
<path d="M12.6571 9.38902L10.959 5.88547V5.88424L11.6314 4.49731L13.3459 7.97138L12.6571 9.38902Z" fill="#BA0F38"/>
<path d="M14.2924 9.89024L14.0887 10.3091C14.0158 10.4615 13.8386 10.5364 13.6714 10.4873C13.2541 10.3657 12.8331 10.2649 12.4082 10.1863C12.3655 10.1777 12.324 10.1691 12.2813 10.163C11.5297 10.0278 10.768 9.95904 10 9.95535C10.0277 9.95412 10.054 9.95412 10.0817 9.95412C10.822 9.95412 11.5636 10.0143 12.2939 10.1372C12.3366 10.1433 12.3793 10.1507 12.4221 10.158C12.5264 10.1765 12.6307 10.1961 12.735 10.217C12.8821 10.2453 13.0003 10.0966 12.9362 9.96518L12.7262 9.53153L13.4163 8.11267L14.2924 9.89024Z" fill="#BA0F38"/>
<path d="M11.6314 4.49735L10.959 5.88428L10.8911 5.743V5.74178L11.5623 4.35608L11.6314 4.49735Z" fill="#CE9117"/>
<path d="M13.8106 0L11.6311 4.49737L11.562 4.3561L13.6724 0H13.8106Z" fill="#F9B906"/>
<path d="M13.4164 8.11271L12.7264 9.53157L12.6572 9.38907L13.346 7.97144L13.4164 8.11271Z" fill="#CE9117"/>
<path d="M17.3578 0L13.4161 8.11271L13.3457 7.97144L17.2195 0H17.3578Z" fill="#F9B906"/>
<path d="M14.7788 10.4456V12.6937H14.2798V10.5095C14.0158 10.4038 13.7468 10.3068 13.4741 10.2208C13.1837 10.1286 12.8896 10.0488 12.5905 9.98C11.7584 9.78959 10.8911 9.68885 9.99997 9.68885C9.10882 9.68885 8.2403 9.78959 7.40948 9.98122C7.10908 10.05 6.81496 10.1299 6.52587 10.222C6.25186 10.308 5.98288 10.405 5.72019 10.5107V12.6949H5.22119V10.4468C5.22119 10.2896 5.31923 10.1471 5.4688 10.0893C5.75161 9.97877 6.16639 9.82521 6.30968 9.77853C6.75463 9.63603 7.21214 9.51687 7.67971 9.42719C8.43009 9.27978 9.20686 9.20361 10.0012 9.20361C10.7956 9.20361 11.5724 9.28101 12.3228 9.42719C12.7903 9.5181 13.2466 9.63726 13.6915 9.78099C13.8348 9.82767 14.2496 9.98245 14.5337 10.0918C14.6832 10.1495 14.7813 10.292 14.7813 10.4493L14.7788 10.4456Z" fill="#C3DBDA"/>
<path d="M10 30.4988C15.5228 30.4988 20 26.123 20 20.7252C20 15.3274 15.5228 10.9517 10 10.9517C4.47715 10.9517 0 15.3274 0 20.7252C0 26.123 4.47715 30.4988 10 30.4988Z" fill="#EBF2F2"/>
<path d="M10.0002 29.6291C15.0316 29.6291 19.1103 25.6427 19.1103 20.7252C19.1103 15.8078 15.0316 11.8214 10.0002 11.8214C4.96887 11.8214 0.890137 15.8078 0.890137 20.7252C0.890137 25.6427 4.96887 29.6291 10.0002 29.6291Z" fill="#C3DBDA"/>
<path d="M18.5534 20.7252C18.5534 25.3344 14.7173 29.0849 10.0001 29.0849C8.66272 29.0849 7.39575 28.7839 6.26704 28.2458C5.08931 27.6857 4.06367 26.8687 3.26302 25.8712C2.89726 25.4155 2.57926 24.9216 2.31656 24.3971C1.75975 23.2878 1.44678 22.0409 1.44678 20.7252C1.44678 19.7486 1.61897 18.8113 1.93572 17.9391C2.8872 15.3139 5.14713 13.2869 7.94376 12.6101C8.60239 12.4504 9.29243 12.3656 10.0013 12.3656C11.5788 12.3656 13.0581 12.7845 14.3276 13.5154C14.8945 13.8422 15.4186 14.2292 15.8925 14.6702C16.7861 15.5006 17.495 16.5178 17.9563 17.6566C18.3422 18.6074 18.5534 19.6417 18.5534 20.7252Z" fill="#EBF2F2"/>
<path d="M14.3264 13.5154L2.31656 24.3971C1.75975 23.2878 1.44678 22.0409 1.44678 20.7252C1.44678 19.7486 1.61897 18.8113 1.93572 17.9391L7.94376 12.6101C8.60239 12.4504 9.29243 12.3656 10.0013 12.3656C11.5788 12.3656 13.0581 12.7845 14.3276 13.5154H14.3264Z" fill="white"/>
<path d="M17.9552 17.6565L6.2672 28.247C5.08948 27.6869 4.06384 26.8699 3.26318 25.8724L15.8901 14.6714C16.7838 15.5018 17.4927 16.519 17.954 17.6578L17.9552 17.6565Z" fill="white"/>
<path d="M12.7349 10.2171C12.2196 10.1126 11.6967 10.0402 11.1713 9.99839C11.1236 9.99347 11.0758 9.99102 11.028 9.98733C10.7138 9.96522 10.3971 9.95416 10.0816 9.95416C9.28721 9.95416 8.49661 10.0242 7.71858 10.163C7.67711 10.1704 7.63437 10.1777 7.59163 10.1863C7.1668 10.2662 6.74448 10.3669 6.32844 10.4873C6.16127 10.5365 5.98404 10.4615 5.91114 10.3092L0.902344 0H8.10823L12.936 9.96522C13.0001 10.0967 12.882 10.2453 12.7349 10.2171Z" fill="#F41943"/>
<path d="M11.1714 9.99839C11.1236 9.99347 11.0758 9.99102 11.0281 9.98733L6.18896 0H6.32722L11.1714 9.99839Z" fill="#F9B906"/>
<path d="M7.71827 10.163C7.67679 10.1704 7.63406 10.1777 7.59132 10.1863L2.6416 0H2.77986L7.71827 10.163Z" fill="#F9B906"/>
</svg>
